<svg width="237" height="67" viewBox="0 0 237 67" fill="none" xmlns="http://www.w3.org/2000/svg">
  <g clip-path="url(#clip0_566_229)">
    <path
      d="M0.0791113 0.0807971C1.76676 -0.0901004 3.49447 0.0714342 5.19155 0.0199308C5.20569 13.5489 5.19155 27.0779 5.19862 40.6046C15.2938 40.6069 25.3891 40.5976 35.4843 40.6093C35.489 42.3042 35.489 43.9991 35.4772 45.6917C23.6708 45.7128 11.862 45.6777 0.0555394 45.7104C0.0225408 44.3503 0.00604287 42.9878 0.0201852 41.6276C0.0225422 28.9086 0.0178281 16.1873 0.0201852 3.46831C0.0343274 2.34695 -0.0646685 1.1928 0.0791113 0.0807971Z"
      fill="currentColor" />
    <path
      d="M37.0635 21.6375C38.6404 21.4737 40.2526 21.6282 41.8389 21.5813C41.8507 25.2989 41.8413 29.0142 41.8436 32.7318C41.8531 33.9726 41.7682 35.2508 41.9261 36.4822C42.1312 38.1678 43.3144 39.6707 44.9149 40.2724C46.0132 40.6961 47.3308 40.6095 48.4952 40.6142C50.7768 40.5744 53.0608 40.647 55.3424 40.5954C56.9712 40.5627 58.5009 39.7503 59.3447 38.355C60.0754 37.1822 60.0825 35.9414 60.0966 34.6047C60.0754 30.2643 60.0825 25.9217 60.0919 21.5813C61.7795 21.579 63.4695 21.5813 65.1572 21.579C65.1643 26.1558 65.1454 30.7302 65.169 35.307C65.1642 36.2458 65.136 37.1541 64.9191 38.0718C64.1554 41.3984 61.5297 44.2147 58.2463 45.2261C56.0943 45.9331 53.5912 45.6475 51.3237 45.6966C49.365 45.6545 47.3756 45.8113 45.4287 45.6006C41.7729 45.1792 38.565 42.5619 37.3299 39.137C36.8703 37.8892 37.0046 36.3886 36.9975 35.0729C36.9975 31.0158 37.0164 26.9564 36.9834 22.8994C36.9881 22.4803 36.9975 22.0519 37.0635 21.6375Z"
      fill="currentColor" />
    <path
      d="M67.116 21.5671C69.6828 21.5507 72.2473 21.5601 74.8141 21.5601C76.1576 23.1216 77.4846 24.6947 78.8234 26.2609C79.3962 26.9211 79.9336 27.6796 80.6171 28.2298C80.9047 28.4545 81.2465 28.5856 81.5812 28.3702C82.0856 28.0495 82.5004 27.5438 82.8823 27.092C84.3908 25.2309 85.9441 23.4048 87.4809 21.5671C90.076 21.5554 92.6734 21.546 95.2685 21.5741C92.6169 24.7978 89.9062 27.9746 87.2357 31.1842C86.5899 31.9825 85.7555 32.7644 85.3194 33.6961C85.7107 34.6279 86.5734 35.4051 87.2098 36.1847C89.8827 39.3685 92.6145 42.5055 95.2544 45.7175C92.664 45.7503 90.0712 45.7315 87.4785 45.7315C85.7908 43.7416 84.1173 41.747 82.4415 39.7478C82.1186 39.4247 81.5929 38.7786 81.0791 38.898C80.5276 39.1063 80.075 39.6471 79.6861 40.0732C78.0668 41.9648 76.4428 43.854 74.8117 45.7362C72.2473 45.7268 69.6828 45.7479 67.1183 45.7222C69.6804 42.6858 72.2425 39.6518 74.8047 36.6154C75.4057 35.892 76.0822 35.2085 76.6172 34.4359C76.8223 34.0871 77.0839 33.7804 76.8435 33.3754C76.3627 32.5092 75.5895 31.7882 74.9673 31.018C72.351 27.8669 69.7299 24.7205 67.116 21.5671Z"
      fill="currentColor" />
    <path
      d="M106.243 21.5765C114.82 21.5836 123.404 21.5812 131.982 21.5789C131.993 23.2551 131.991 24.9313 131.984 26.6075C124.425 26.6028 116.866 26.6075 109.307 26.6028C108.02 26.6122 106.65 26.5162 105.385 26.7526C103.721 27.0874 102.311 28.3609 101.842 29.9833C101.571 30.9923 101.646 32.1581 101.642 33.1999C101.661 34.2885 101.583 35.4052 101.701 36.4868C101.896 38.5633 103.74 40.3425 105.818 40.5485C106.969 40.6656 108.15 40.6 109.307 40.6047C116.866 40.6047 124.425 40.6024 131.984 40.607C131.991 42.302 131.991 43.9992 131.982 45.6942C124.345 45.7012 116.708 45.6942 109.071 45.6989C107.171 45.6965 105.382 45.8253 103.537 45.254C100.647 44.3785 98.2688 42.1826 97.1964 39.3756C96.4963 37.655 96.5223 35.9553 96.5364 34.1363C96.5694 32.0411 96.3596 30.1074 97.1021 28.0987C98.4173 24.3273 102.196 21.5391 106.243 21.5765Z"
      fill="currentColor" />
    <path
      d="M197.128 21.6395C198.165 21.5014 199.245 21.588 200.289 21.581C208.661 21.581 217.036 21.581 225.408 21.581C225.413 23.2548 225.413 24.9287 225.41 26.6049C217.667 26.6189 209.922 26.5791 202.177 26.6236C202.101 28.1196 202.099 29.5944 202.184 31.0904C204.303 31.191 206.42 31.1325 208.539 31.1466C212.586 31.1512 216.63 31.1372 220.677 31.1536C220.677 32.811 220.677 34.4662 220.675 36.1236C214.504 36.1424 208.333 36.1096 202.163 36.14C202.104 37.6313 202.101 39.1155 202.186 40.6044C209.92 40.5974 217.651 40.6232 225.384 40.5904C225.429 42.297 225.427 43.9966 225.384 45.7033C215.959 45.6986 206.53 45.6799 197.102 45.7126C197.008 38.1885 197.114 30.6596 197.05 23.1331C197.05 22.6391 197.05 22.1288 197.128 21.6395Z"
      fill="currentColor" />
    <path
      d="M166.244 21.8387C167.283 21.6983 168.365 21.7849 169.412 21.7779C173.89 21.7779 178.368 21.7802 182.847 21.7755C184.424 21.7779 186.125 21.6936 187.653 22.1009C189.76 22.6511 191.688 23.9855 192.914 25.7787C194.691 28.396 194.759 32.027 193.098 34.7146C192.336 35.9343 191.231 36.9901 189.977 37.7018C188.874 38.3292 187.724 38.5703 186.507 38.8723C188.685 41.2344 191.071 43.3976 193.298 45.7152C190.55 45.755 187.804 45.7269 185.058 45.7316C183.408 44.0999 181.786 42.4424 180.148 40.7966C179.604 40.2465 178.993 39.7338 178.515 39.1251C178.161 38.7178 178.225 38.1512 178.194 37.6503C178.199 36.262 178.229 34.8761 178.215 33.4878C180.153 33.4785 182.088 33.4878 184.025 33.4995C185.206 33.4785 186.293 33.4457 187.212 32.6146C188.527 31.4862 188.53 29.288 187.221 28.1526C186.307 27.3262 185.201 27.2887 184.025 27.263C180.141 27.2934 176.257 27.2676 172.37 27.2817C172.353 33.4317 172.372 39.5816 172.36 45.7316C170.303 45.7363 168.245 45.7363 166.187 45.7339C166.178 38.8231 166.187 31.9147 166.182 25.0062C166.192 23.9597 166.105 22.8782 166.244 21.8387Z"
      fill="currentColor" />
    <path fill-rule="evenodd" clip-rule="evenodd"
      d="M162.529 21.5787C157.044 21.5811 151.562 21.5811 146.077 21.5787C145.791 21.5806 145.499 21.5778 145.204 21.5749C144.028 21.5634 142.797 21.5515 141.695 21.8339C138.362 22.6673 135.553 25.287 134.607 28.5832C134.159 30.0938 134.172 31.5421 134.186 33.0693C134.188 33.2675 134.189 33.4669 134.19 33.668C134.195 35.4213 134.194 37.1751 134.193 38.929C134.192 41.1842 134.19 43.4395 134.202 45.694C135.904 45.701 137.606 45.701 139.307 45.6917C139.315 44.3338 139.314 42.9772 139.313 41.62C139.312 41.1684 139.312 40.7168 139.312 40.2651C144.502 40.2571 149.692 40.2594 154.882 40.2616L157.485 40.2627C157.487 40.7758 157.487 41.2886 157.486 41.8013C157.485 43.1041 157.484 44.4061 157.523 45.7081C158.911 45.6983 160.302 45.6967 161.691 45.695L162.524 45.694C162.537 39.3804 162.534 33.0654 162.531 26.7501C162.53 25.0263 162.53 23.3025 162.529 21.5787ZM152.026 26.6053C149.729 26.6072 147.431 26.609 145.134 26.5933C144.149 26.605 143.128 26.6261 142.207 27.0147C140.639 27.6585 139.477 29.1708 139.35 30.8611C139.284 31.769 139.295 32.6837 139.307 33.5971C139.313 34.1156 139.32 34.6336 139.312 35.1499C143.639 35.18 147.966 35.1743 152.293 35.1685C154.024 35.1662 155.754 35.1639 157.485 35.1639C157.492 32.3125 157.494 29.4611 157.483 26.6097C155.664 26.6025 153.845 26.6039 152.026 26.6053Z"
      fill="currentColor" />
    <path
      d="M236.437 22.5761C237.139 23.8824 236.821 25.1747 236.5 26.5278C236.083 26.5138 235.666 26.5021 235.249 26.488C235.567 25.6757 236.201 24.5122 235.814 23.653C235.588 23.0279 234.817 22.7072 234.28 23.1684C233.469 23.9761 233.141 25.3339 232.279 26.1135C231.397 26.8509 229.983 26.5536 229.443 25.5539C228.87 24.5754 229.149 23.1403 229.231 22.0564C229.644 22.0564 230.056 22.0541 230.469 22.0517C230.249 22.8126 229.811 23.845 230.148 24.6105C230.322 25.0787 231.119 25.6008 231.522 25.1279C232.42 24.353 232.691 22.843 233.646 22.0868C234.497 21.422 235.894 21.6093 236.437 22.5761Z"
      fill="currentColor" />
    <path fill-rule="evenodd" clip-rule="evenodd"
      d="M236.744 28.1962C236.722 27.8531 236.7 27.51 236.668 27.1669C234.146 28.0729 231.647 29.0538 229.158 30.0441C229.163 30.421 229.167 30.7955 229.175 31.1724C230.282 31.6003 231.39 32.0269 232.498 32.4534C233.9 32.9931 235.302 33.5327 236.703 34.0754L236.703 34.0502C236.713 33.6279 236.722 33.2078 236.729 32.7854C236.435 32.6803 236.142 32.5748 235.848 32.4693C235.448 32.3255 235.048 32.1817 234.648 32.0386C234.648 31.5631 234.647 31.0882 234.646 30.6135C234.646 30.1395 234.645 29.6657 234.645 29.1919C235.348 28.9157 236.05 28.6418 236.755 28.3679C236.751 28.3106 236.747 28.2534 236.744 28.1962ZM233.698 31.7039L233.705 29.5338C232.736 29.8826 231.772 30.2478 230.817 30.6364C231.772 31.011 232.734 31.3622 233.698 31.7039Z"
      fill="currentColor" />
    <path fill-rule="evenodd" clip-rule="evenodd"
      d="M233.947 37.6056C233.907 36.7854 233.863 35.8836 233.318 35.2787C232.366 34.1152 230.03 34.155 229.417 35.6486C229.107 36.4794 229.131 37.4604 229.154 38.3896C229.162 38.6884 229.169 38.9818 229.165 39.2632C231.682 39.3967 234.212 39.3569 236.731 39.2937C236.726 38.9285 236.724 38.5656 236.722 38.2004L236.709 38.2004C235.801 38.198 234.891 38.1957 233.983 38.191C233.966 38.0046 233.957 37.8076 233.947 37.6056ZM232.997 37.6539C232.938 37.0345 232.87 36.3301 232.385 35.9764C231.746 35.4333 230.714 35.5808 230.327 36.3416C230.174 36.7732 230.127 37.251 230.082 37.718C230.066 37.8817 230.05 38.0441 230.03 38.2027C231.041 38.1981 232.05 38.1887 233.059 38.1723C233.032 38.0146 233.015 37.838 232.997 37.6539Z"
      fill="currentColor" />
    <path
      d="M236.545 41.9039C236.981 42.9012 236.979 44.4931 236.481 45.467C236.078 45.6005 235.661 45.6918 235.253 45.8018C235.52 44.9988 235.927 44.1139 235.937 43.2594C235.876 42.5547 235.074 41.5738 234.358 42.2364C233.403 43.0347 233.09 44.8185 231.965 45.446C230.881 46.0219 229.601 45.3734 229.255 44.252C229.014 43.3249 228.974 42.2317 229.302 41.321C229.684 41.2274 230.08 41.1735 230.471 41.1126C230.266 41.9016 229.794 42.9995 230.167 43.7791C230.41 44.348 231.128 44.6336 231.626 44.1911C232.394 43.3952 232.727 41.9742 233.62 41.2484C234.542 40.5087 236.071 40.7802 236.545 41.9039Z"
      fill="currentColor" />
    <path
      d="M133.66 56.7179C133.889 56.7061 134.12 56.7202 134.353 56.7577C134.443 57.1346 134.542 57.4787 134.351 57.8416C133.938 57.9352 133.544 58.0125 133.207 57.6917C133.163 57.2867 133.118 56.76 133.66 56.7179Z"
      fill="currentColor" />
    <path
      d="M152.139 56.8185C152.483 56.7272 152.839 56.6781 153.188 56.6172C153.238 59.2392 153.214 61.8635 153.205 64.4878C152.83 64.4855 152.455 64.4855 152.08 64.4878C152.069 62.4862 152.094 60.4846 152.061 58.483C152.059 57.9329 152.047 57.364 152.139 56.8185Z"
      fill="currentColor" />
    <path
      d="M214.554 56.6453C214.582 56.952 214.61 57.2563 214.639 57.5606C214.273 57.5981 213.899 57.6285 213.54 57.6988C213.288 58.0897 213.224 58.6258 213.095 59.0706C213.566 59.1198 214.035 59.1689 214.507 59.2181C214.483 59.4148 214.464 59.6091 214.445 59.8057C214.04 59.8713 213.632 59.9415 213.227 60.0117C213.206 61.503 213.191 62.9966 213.203 64.4902C212.85 64.4902 212.496 64.4902 212.143 64.4925C212.14 63.02 212.135 61.5451 212.147 60.0703C211.843 59.9579 211.539 59.8479 211.235 59.7355C211.223 59.5833 211.209 59.4288 211.197 59.2766C211.48 59.2111 211.761 59.1455 212.044 59.08C212.15 58.5064 212.152 57.7573 212.498 57.268C212.923 56.6851 213.906 56.7483 214.554 56.6453Z"
      fill="currentColor" />
    <path
      d="M131.381 57.3289C131.397 57.7432 131.414 58.1553 131.433 58.5696C130.674 58.263 129.738 57.6379 128.922 58.0733C128.371 58.3145 128.046 58.874 128.352 59.4405C129.123 60.3465 130.683 60.604 131.428 61.5639C132.038 62.423 131.791 63.6872 130.829 64.1741C129.747 64.7407 128.246 64.4387 127.081 64.2865C127.079 63.9002 127.074 63.5116 127.072 63.1253C127.873 63.4086 128.965 63.9588 129.806 63.6685C130.419 63.5233 130.923 62.5775 130.393 62.1117C129.615 61.3251 128.354 61.0371 127.543 60.2669C126.799 59.5669 126.947 58.2138 127.803 57.659C128.918 56.8958 130.134 57.1884 131.381 57.3289Z"
      fill="currentColor" />
    <path
      d="M183.721 57.4974C183.742 58.0335 183.761 58.572 183.778 59.1081C184.219 59.1385 184.659 59.1643 185.1 59.1947C185.103 59.4007 185.103 59.6044 185.103 59.8104C184.657 59.8759 184.212 59.9392 183.766 60.0047C183.702 61.2501 183.778 62.4862 183.9 63.727C184.311 63.7106 184.718 63.6942 185.128 63.6802C185.103 63.9541 185.079 64.2256 185.055 64.4995C184.353 64.427 183.158 64.6821 182.835 63.8651C182.486 62.6665 182.687 61.2642 182.649 60.0211C182.352 59.9368 182.057 59.8525 181.76 59.7659C181.751 59.5997 181.739 59.4311 181.727 59.2626C182.015 59.2017 182.302 59.1409 182.59 59.0823C182.63 58.6773 182.668 58.2676 182.727 57.865C183.054 57.7315 183.387 57.6145 183.721 57.4974Z"
      fill="currentColor" />
    <path
      d="M229.078 57.4272C229.102 57.9937 229.118 58.5603 229.135 59.1268C229.575 59.1362 230.018 59.1455 230.459 59.1549C230.445 59.4054 230.429 59.6559 230.412 59.9064C229.983 59.9321 229.556 59.9532 229.127 59.979C229.043 61.297 229.111 62.4933 229.311 63.7949C229.693 63.7434 230.077 63.6942 230.459 63.6427C230.457 63.919 230.454 64.1929 230.454 64.4691C229.712 64.4129 228.463 64.736 228.175 63.8089C227.866 62.6126 228.031 61.2642 228.022 60.0328C227.732 59.9532 227.44 59.8736 227.15 59.794C227.138 59.6044 227.126 59.4171 227.115 59.2298C227.376 59.1807 227.64 59.1338 227.902 59.0847C227.989 58.6984 228.053 58.3004 228.175 57.9258C228.453 57.7315 228.776 57.5794 229.078 57.4272Z"
      fill="currentColor" />
    <path fill-rule="evenodd" clip-rule="evenodd"
      d="M198.304 57.2282C197.366 57.0901 196.317 57.0831 195.382 57.2329C195.27 57.8245 195.27 58.4507 195.271 59.0546C195.271 59.0983 195.271 59.1419 195.271 59.1853C195.279 59.8849 195.281 60.5845 195.282 61.2841C195.284 62.352 195.286 63.4199 195.313 64.4878C195.688 64.4878 196.063 64.4878 196.435 64.4902C196.438 64.0281 196.439 63.5661 196.441 63.1037C196.443 62.6431 196.445 62.1822 196.447 61.7207C196.61 61.7068 196.782 61.6973 196.958 61.6875C197.789 61.6412 198.718 61.5895 199.337 61.0465C200.072 60.4472 200.112 59.3796 199.931 58.5252C199.721 57.776 199.047 57.3453 198.304 57.2282ZM196.942 57.8937C196.774 57.8766 196.608 57.8596 196.447 57.8369C196.44 58.888 196.44 59.9392 196.447 60.9903C196.573 60.9705 196.7 60.9523 196.828 60.934C197.244 60.8744 197.664 60.8141 198.066 60.6977C199.085 60.2763 199.235 58.7359 198.274 58.1553C197.864 57.9877 197.396 57.94 196.942 57.8937Z"
      fill="currentColor" />
    <path
      d="M133.285 59.1409C133.655 59.1432 134.025 59.1455 134.393 59.1409C134.4 60.9224 134.4 62.704 134.398 64.4855C134.025 64.4832 133.655 64.4808 133.285 64.4832C133.28 62.7016 133.28 60.9224 133.285 59.1409Z"
      fill="currentColor" />
    <path
      d="M136.121 59.1689C137.679 59.3867 138.923 58.8904 140.286 59.6816C141.026 59.382 141.705 58.9606 142.534 59.1877C143.149 59.3375 143.564 59.7542 143.689 60.3723C143.932 61.7067 143.781 63.13 143.798 64.4832C143.421 64.4808 143.043 64.4785 142.666 64.4808C142.662 63.3009 142.758 62.0929 142.617 60.9201C142.537 60.4706 142.362 59.9368 141.804 59.9532C141.129 59.8947 140.733 60.4565 140.625 61.0535C140.439 62.1702 140.54 63.3524 140.543 64.4855C140.163 64.4832 139.786 64.4855 139.409 64.4878C139.39 63.3009 139.482 62.0882 139.343 60.9084C139.267 60.4378 139.051 59.9626 138.501 59.9532C137.82 59.8853 137.431 60.4425 137.342 61.0512C137.179 62.1772 137.276 63.3524 137.276 64.4902C136.894 64.4878 136.512 64.4878 136.128 64.4878C136.114 62.7157 136.118 60.9411 136.121 59.1689Z"
      fill="currentColor" />
    <path
      d="M160.879 59.1689C162.456 59.389 163.701 58.8857 165.061 59.684C165.876 59.3445 166.56 58.9208 167.477 59.2368C168.104 59.4335 168.426 59.9532 168.502 60.5806C168.667 61.8495 168.565 63.1581 168.584 64.4363C168.212 64.4644 167.837 64.4949 167.465 64.5253C167.441 63.3922 167.493 62.2521 167.418 61.1191C167.363 60.6508 167.297 60.089 166.739 59.9743C166.095 59.8244 165.614 60.2763 165.449 60.8592C165.183 62.0227 165.315 63.3033 165.31 64.4925C164.936 64.4878 164.558 64.4855 164.184 64.4855C164.155 63.2892 164.236 62.0719 164.111 60.8803C164.056 60.3933 163.797 59.9649 163.26 59.9509C162.673 59.8994 162.289 60.3371 162.164 60.8639C161.933 62.0391 162.058 63.3009 162.053 64.4949C161.669 64.4902 161.287 64.4855 160.903 64.4832C160.863 62.711 160.874 60.9411 160.879 59.1689Z"
      fill="currentColor" />
    <path
      d="M176.176 59.1619C176.997 59.2415 177.791 59.2673 178.614 59.2158C179.09 59.2205 179.606 59.1174 180.014 59.4194C180.506 59.7448 180.692 60.2458 180.754 60.81C180.89 62.0227 180.78 63.2728 180.77 64.4902C180.403 64.4878 180.035 64.4878 179.667 64.4902C179.632 63.1909 179.865 61.6879 179.45 60.4495C178.965 59.5529 177.657 59.9532 177.449 60.8498C177.197 62.018 177.336 63.2939 177.329 64.4855C176.947 64.4855 176.565 64.4878 176.186 64.4925C176.169 62.7157 176.174 60.9388 176.176 59.1619Z"
      fill="currentColor" />
    <path
      d="M207.19 59.1643C208.192 59.2649 209.114 59.2602 210.115 59.1526C210.127 59.4124 210.137 59.6699 210.148 59.9298C209.764 59.986 209.371 60.0141 208.994 60.1077C208.56 60.3161 208.397 60.8475 208.338 61.2899C208.206 62.3434 208.27 63.4344 208.275 64.4972C207.914 64.4925 207.553 64.4878 207.193 64.4855C207.188 62.711 207.19 60.9364 207.19 59.1643Z"
      fill="currentColor" />
    <path
      d="M225.835 59.293C225.83 59.6208 225.825 59.9485 225.818 60.2763C225.238 60.1545 224.571 59.9111 223.98 59.9977C222.459 60.4963 222.353 63.0926 223.871 63.6638C224.451 63.8487 225.217 63.4929 225.802 63.3688C225.813 63.6685 225.825 63.9681 225.839 64.2701C224.793 64.42 223.801 64.75 222.808 64.1999C221.088 63.2588 221.238 60.3254 222.957 59.4663C223.859 58.9606 224.859 59.2111 225.835 59.293Z"
      fill="currentColor" />
    <path fill-rule="evenodd" clip-rule="evenodd"
      d="M146.235 59.2813C145.978 59.197 145.719 59.1174 145.457 59.0425C145.444 61.1101 145.447 63.1762 145.45 65.2431C145.451 65.8067 145.452 66.3704 145.452 66.9342C145.811 66.9506 146.169 66.9717 146.527 66.9998C146.558 66.0821 146.574 65.1644 146.581 64.2444C146.72 64.2686 146.862 64.2972 147.006 64.3262C147.766 64.4793 148.586 64.6442 149.275 64.2467C150.237 63.72 150.529 62.5377 150.487 61.5217C150.456 60.611 150.155 59.7004 149.245 59.3188C148.57 59.0138 147.928 59.1748 147.264 59.3411C147.052 59.3943 146.837 59.4481 146.619 59.4873C146.555 59.4534 146.491 59.4188 146.427 59.3843C146.363 59.3498 146.298 59.3152 146.235 59.2813ZM149.24 60.9177C149.035 60.1803 148.333 59.7823 147.585 59.9977C146.534 60.3465 146.482 61.5475 146.584 62.4699C146.624 63.3173 147.592 64.0735 148.399 63.631C149.386 63.1136 149.455 61.8799 149.24 60.9177Z"
      fill="currentColor" />
    <path fill-rule="evenodd" clip-rule="evenodd"
      d="M159.418 61.4977C159.324 60.7838 159.221 60.0077 158.633 59.5903C157.584 58.799 155.797 59.0308 155.062 60.1498C154.543 60.9013 154.501 61.9665 154.697 62.8303C154.904 63.6872 155.548 64.3544 156.448 64.462C157.19 64.5487 158.185 64.5697 158.826 64.1226C158.963 63.9099 159.054 63.6645 159.143 63.4221C159.185 63.3096 159.226 63.1978 159.272 63.0902C159.129 63.1419 158.985 63.1968 158.839 63.2522C158.287 63.4625 157.716 63.68 157.143 63.7597C156.352 63.6652 156.118 63.1579 155.853 62.5846C155.784 62.4341 155.712 62.279 155.628 62.1257C156.693 62.1006 157.759 62.0978 158.824 62.0949C159.053 62.0943 159.281 62.0937 159.51 62.0929C159.472 61.9066 159.445 61.7047 159.418 61.4977ZM158.164 60.8647C157.936 60.4084 157.693 59.9186 157.146 59.9462C156.523 59.8929 156.218 60.4018 155.93 60.8826C155.839 61.0353 155.749 61.1852 155.651 61.3134C156.573 61.3345 157.492 61.3368 158.414 61.3157C158.324 61.1864 158.245 61.0277 158.164 60.8647Z"
      fill="currentColor" />
    <path fill-rule="evenodd" clip-rule="evenodd"
      d="M174.685 61.497C174.585 60.8002 174.475 60.0345 173.923 59.6161C172.848 58.7639 170.958 59.0355 170.267 60.2646C169.577 61.3976 169.687 63.2845 170.812 64.1156C171.806 64.7726 172.993 64.4769 174.072 64.208C174.146 64.1894 174.22 64.171 174.293 64.1531C174.295 63.8089 174.3 63.4648 174.307 63.1207C174.161 63.1762 174.005 63.2464 173.842 63.3195C173.189 63.6125 172.434 63.951 171.832 63.5725C171.442 63.415 171.269 62.9493 171.114 62.529C171.059 62.3806 171.006 62.2379 170.946 62.1163C171.774 62.1027 172.602 62.0999 173.429 62.097C173.88 62.0955 174.332 62.0939 174.783 62.0906C174.744 61.9062 174.715 61.7046 174.685 61.497ZM173.445 60.868C173.216 60.4242 172.96 59.9281 172.464 59.9486C171.794 59.8923 171.511 60.361 171.22 60.8428C171.123 61.0029 171.026 61.1645 170.913 61.3087C171.842 61.3368 172.77 61.3368 173.701 61.3134C173.612 61.1919 173.531 61.0336 173.445 60.868Z"
      fill="currentColor" />
    <path fill-rule="evenodd" clip-rule="evenodd"
      d="M190.852 61.5697C190.755 60.882 190.643 60.085 190.147 59.6605C188.982 58.696 186.913 59.0659 186.281 60.4869C185.77 61.5755 185.885 63.2821 186.882 64.0734C187.695 64.6446 188.97 64.6048 189.887 64.3216C190.332 64.1985 190.398 63.9125 190.475 63.5764C190.512 63.414 190.552 63.2399 190.639 63.0668C190.469 63.1303 190.295 63.2036 190.118 63.2782C189.589 63.5002 189.035 63.7334 188.49 63.7527C187.791 63.6562 187.529 63.1304 187.258 62.5875C187.181 62.4325 187.103 62.2762 187.014 62.128C188.157 62.0993 189.3 62.0957 190.444 62.0922C190.607 62.0916 190.771 62.0911 190.934 62.0905C190.903 61.931 190.878 61.7543 190.852 61.5697ZM189.559 60.8415C189.342 60.3706 189.117 59.8847 188.513 59.9485C187.954 59.9167 187.627 60.4309 187.334 60.8926C187.238 61.0439 187.145 61.1896 187.049 61.3086C187.969 61.3344 188.888 61.3391 189.807 61.3157C189.714 61.1768 189.637 61.0101 189.559 60.8415Z"
      fill="currentColor" />
    <path fill-rule="evenodd" clip-rule="evenodd"
      d="M205.903 61.579C205.82 60.95 205.725 60.2392 205.331 59.7964C204.185 58.6165 201.828 59.0379 201.27 60.6322C200.857 61.6997 200.965 63.3431 201.946 64.0876C203.141 64.832 204.383 64.4926 205.609 64.0431L205.538 63.095C205.408 63.1495 205.274 63.2099 205.138 63.2714C204.637 63.4977 204.103 63.7391 203.575 63.7575C202.831 63.6574 202.59 63.1543 202.326 62.6032C202.25 62.4452 202.172 62.2833 202.08 62.1258C203.054 62.1047 204.029 62.0994 205.004 62.0942C205.329 62.0924 205.654 62.0906 205.979 62.0883C205.95 61.9306 205.927 61.7581 205.903 61.579ZM204.619 60.8534C204.394 60.3935 204.155 59.9055 203.591 59.9485C202.986 59.9047 202.686 60.3997 202.403 60.8674C202.307 61.0248 202.214 61.179 202.111 61.3087C203.033 61.3344 203.952 61.3368 204.873 61.3157C204.781 61.183 204.701 61.02 204.619 60.8534Z"
      fill="currentColor" />
    <path fill-rule="evenodd" clip-rule="evenodd"
      d="M220.486 61.4978C220.405 60.891 220.316 60.2225 219.94 59.8034C218.796 58.6165 216.437 59.0332 215.874 60.6298C215.464 61.6949 215.567 63.3524 216.56 64.0875C217.392 64.6447 218.655 64.6096 219.574 64.3006C219.968 64.1826 220.049 63.896 220.14 63.5742C220.186 63.4106 220.235 63.238 220.329 63.0738C220.165 63.1342 219.999 63.2005 219.831 63.2674C219.298 63.4807 218.746 63.701 218.188 63.7598C217.431 63.6604 217.187 63.1493 216.92 62.5884C216.847 62.4354 216.772 62.2787 216.685 62.1257C217.724 62.0995 218.761 62.0972 219.8 62.095C220.059 62.0944 220.319 62.0939 220.578 62.0929C220.541 61.9105 220.514 61.7079 220.486 61.4978ZM219.228 60.8539C218.999 60.3959 218.756 59.909 218.195 59.9486C217.589 59.8988 217.281 60.4126 216.995 60.8904C216.904 61.0422 216.815 61.1904 216.72 61.3157C217.642 61.3368 218.563 61.3368 219.485 61.3134C219.391 61.1816 219.311 61.0196 219.228 60.8539Z"
      fill="currentColor" />
    <path fill-rule="evenodd" clip-rule="evenodd"
      d="M236.576 60.1311C235.902 59.1034 234.447 58.9676 233.354 59.2649C231.159 59.7917 230.938 63.3267 232.901 64.2608C234.075 64.7454 235.89 64.6119 236.597 63.4086C237.137 62.519 237.139 61.009 236.576 60.1311ZM235.647 60.8007C235.357 60.0726 234.589 59.7987 233.858 60.0047C232.821 60.3301 232.496 61.7371 232.861 62.6501C233.17 63.4461 234.065 64.0571 234.912 63.6263C235.944 63.109 235.97 61.7535 235.647 60.8007Z"
      fill="currentColor" />
    <path
      d="M231.551 18.4515V14.5186H233.005C233.322 14.5186 233.582 14.5729 233.786 14.6815C233.993 14.7864 234.148 14.9306 234.249 15.1141C234.351 15.2939 234.402 15.4943 234.402 15.7153C234.402 15.955 234.338 16.1742 234.21 16.3727C234.085 16.5712 233.889 16.7154 233.621 16.8053L234.442 18.4515H233.61L232.875 16.9008H232.275V18.4515H231.551ZM232.275 16.3727H232.96C233.201 16.3727 233.378 16.3146 233.491 16.1985C233.604 16.0824 233.661 15.9288 233.661 15.7378C233.661 15.5505 233.604 15.4007 233.491 15.2883C233.382 15.1759 233.203 15.1197 232.954 15.1197H232.275V16.3727Z"
      fill="currentColor" />
    <path
      d="M236.212 16.3443C236.212 18.2035 234.694 19.715 232.816 19.715C230.938 19.715 229.42 18.2035 229.42 16.3443C229.42 14.4851 230.938 12.9736 232.816 12.9736C234.62 12.9736 236.212 14.4902 236.212 16.3443Z"
      stroke="currentColor" stroke-width="0.75" />
  </g>
  <defs>
    <clipPath id="clip0_566_229">
      <rect width="237" height="67" fill="white" />
    </clipPath>
  </defs>
</svg>